<svg width="512" height="512" viewBox="0 0 512 512" fill="none" xmlns="http://www.w3.org/2000/svg">
  <rect width="512" height="512" rx="120" fill="#0A2D6E"/>
  <path d="M256 72C198 108 150 120 120 128V256C120 346 182 417 256 440C330 417 392 346 392 256V128C362 120 314 108 256 72Z" fill="#E8F4FD"/>
  <path d="M256 148C224 170 196 176 176 180V256C176 312 216 356 256 372C296 356 336 312 336 256V180C316 176 288 170 256 148Z" fill="#1B6CA8"/>
  <path d="M256 206C236 220 220 224 208 226V256C208 288 230 312 256 322C282 312 304 288 304 256V226C292 224 276 220 256 206Z" fill="#3B9FE8"/>
</svg>
