<svg xmlns="http://www.w3.org/2000/svg" width="1200" height="630" viewBox="0 0 1200 630" fill="none">
  <defs>
    <linearGradient id="bg" x1="0" y1="0" x2="1200" y2="630" gradientUnits="userSpaceOnUse">
      <stop stop-color="#7C2D12"/>
      <stop offset="1" stop-color="#EA580C"/>
    </linearGradient>
  </defs>
  <rect width="1200" height="630" fill="url(#bg)"/>
  <rect x="300" y="120" width="600" height="390" rx="28" fill="#FFFFFF" fill-opacity="0.16"/>
  <rect x="360" y="190" width="330" height="24" rx="12" fill="#FFFFFF"/>
  <rect x="360" y="240" width="420" height="20" rx="10" fill="#FFEFE8"/>
  <rect x="360" y="280" width="390" height="20" rx="10" fill="#FFEFE8"/>
  <rect x="360" y="320" width="280" height="20" rx="10" fill="#FFEFE8"/>
  <rect x="710" y="300" width="130" height="130" rx="18" fill="#FDBA74"/>
  <path d="M775 330C748 330 726 352 726 379V392H824V379C824 352 802 330 775 330Z" fill="#7C2D12"/>
  <rect x="712" y="386" width="126" height="58" rx="14" fill="#7C2D12"/>
  <circle cx="775" cy="414" r="10" fill="#FDBA74"/>
</svg>
